# Blender 4.1.1
# www.blender.org
mtllib low-poly-sphere.mtl.mtl
o Cube
o Object
v -0.810443 -0.211007 -0.481791
v -0.865348 -0.290467 -0.291801
v -0.844683 0.002088 -0.511806
v -0.939175 -0.001485 -0.304384
v -0.413407 -0.655687 -0.499345
v -0.494537 -0.714529 -0.287539
v -0.639924 -0.440515 -0.647658
v -0.723901 -0.518656 -0.289760
v -0.387086 0.172121 -0.911349
v -0.595258 0.014084 -0.788458
v -0.189011 -0.709359 -0.549817
v -0.195635 -0.894869 -0.301266
v -0.018024 -0.207788 -0.943443
v -0.179604 -0.411593 -0.833800
v -0.178045 0.016122 -0.973013
v -0.300120 -0.113675 -0.920752
v -0.892881 -0.302454 0.166771
v -0.852612 -0.226474 0.389812
v -0.971135 -0.000016 0.176939
v -0.888637 0.004769 0.431111
v -0.515100 -0.736820 0.164598
v -0.439206 -0.689405 0.417313
v -0.751793 -0.530710 0.164344
v -0.614765 -0.410326 0.591971
v -0.414647 -0.229408 0.840205
v -0.711051 0.003651 0.684987
v -0.454946 0.006116 0.877403
v -0.195071 -0.928360 0.174552
v -0.186904 -0.748138 0.487325
v -0.189398 -0.539671 0.738039
v -0.186818 -0.295523 0.891924
v -0.191252 0.004076 0.969588
v -0.841964 0.236571 -0.507475
v -0.912896 0.354296 -0.296545
v -0.378001 0.239123 -0.907911
v -0.607731 0.404298 -0.722904
v -0.818352 0.583849 -0.291272
v -0.474154 0.755918 -0.593605
v -0.579629 0.855486 -0.288779
v -0.190116 0.367481 -1.005854
v -0.190039 0.603662 -0.954160
v -0.189599 0.859317 -0.715458
v -0.206338 1.099353 -0.289425
v -0.057383 1.156562 -0.122841
v -0.930145 0.398942 0.172728
v -0.874258 0.300593 0.424235
v -0.830588 0.620262 0.168294
v -0.638986 0.498787 0.647834
v -0.431665 0.385184 0.847085
v -0.595923 0.880284 0.167792
v -0.489593 0.781350 0.533701
v -0.340475 0.629115 0.769822
v -0.229417 0.520934 0.943966
v -0.203164 1.125134 0.190900
v -0.229682 0.884106 0.689820
v -0.102012 0.711859 0.863655
v -0.067806 1.202530 0.058400
v 0.178565 -0.711525 -0.548756
v 0.302418 -0.793752 -0.321961
v 0.045130 -0.206080 -0.942861
v 0.277994 -0.466589 -0.768458
v 0.457542 -0.646853 -0.474612
v 0.113890 0.009784 -0.980875
v 0.344629 0.011245 -0.925559
v 0.537024 -0.715611 -0.200261
v 0.633128 -0.360540 -0.612229
v 0.755539 -0.458119 -0.323763
v 0.752352 0.007958 -0.640349
v 0.932573 -0.146636 -0.433398
v 0.932162 -0.212551 -0.142105
v 0.978476 0.143806 -0.541102
v 1.009274 -0.001698 -0.301796
v 0.268444 -0.845469 0.167376
v 0.272287 -0.731539 0.475912
v 0.292799 -0.597247 0.775848
v 0.275812 -0.291268 0.869856
v 0.288708 0.001017 1.021749
v 0.540197 -0.718900 0.169272
v 0.489310 -0.665758 0.407037
v 0.826789 -0.427061 0.165591
v 0.599167 -0.423171 0.596308
v 0.511691 -0.245986 0.857997
v 0.926777 -0.080957 0.301029
v 0.803694 0.040996 0.580316
v 0.551188 0.004897 0.894583
v 0.938811 -0.221061 -0.000971
v 0.976671 0.043340 0.159320
v 0.912301 0.214607 0.374288
v 0.121809 0.382224 -0.943376
v 0.280270 0.515641 -0.931354
v 0.274008 0.844091 -0.698581
v 0.254495 1.026815 -0.271235
v 0.091917 1.087888 -0.106631
v 0.709256 0.429955 -0.611039
v 0.890781 0.577765 -0.370478
v 0.583012 0.757367 -0.590664
v 0.707122 0.757252 -0.236501
v 0.968188 0.281900 -0.532653
v 1.024941 0.461372 -0.264401
v 0.938929 0.673756 -0.074356
v 0.376948 0.593665 0.776098
v 0.248957 0.453675 0.894157
v 0.273243 1.106581 0.194220
v 0.255852 0.848021 0.642423
v 0.089452 0.707478 0.861511
v 0.109258 1.160443 0.048778
v 0.866336 0.528403 0.227821
v 0.721033 0.427395 0.599221
v 0.503600 0.286788 0.835494
v 0.715360 0.783717 0.111508
v 0.569722 0.762524 0.476066
v 1.041408 0.442999 0.135305
v 0.912727 0.229177 0.368783
v 0.938392 0.675467 -0.066599
vn -0.8955 -0.2253 -0.3837
vn -0.7097 -0.6124 -0.3483
vn -0.7076 -0.6148 -0.3483
vn -0.5636 -0.7510 -0.3439
vn -0.8296 -0.4444 -0.3381
vn -0.7532 -0.1520 -0.6400
vn -0.4056 -0.7731 -0.4877
vn -0.3454 -0.4926 -0.7988
vn -0.3444 -0.4954 -0.7975
vn -0.2602 -0.6843 -0.6813
vn -0.1767 -0.3040 -0.9361
vn -0.4024 -0.0925 -0.9108
vn -0.4972 0.0207 -0.8674
vn -0.4976 0.0212 -0.8672
vn -0.4036 -0.3021 -0.8637
vn -0.9664 -0.2488 -0.0640
vn -0.9333 -0.2267 0.2785
vn -0.6516 -0.7559 -0.0635
vn -0.8485 -0.5252 -0.0654
vn -0.6397 -0.6754 0.3668
vn -0.7665 -0.5265 0.3678
vn -0.7636 -0.2779 0.5829
vn -0.6076 -0.2770 0.7444
vn -0.5143 -0.8553 -0.0625
vn -0.4140 -0.8214 0.3922
vn -0.3871 -0.6824 0.6201
vn -0.3870 -0.5295 0.7548
vn -0.3023 -0.2241 0.9265
vn -0.9236 0.0532 -0.3797
vn -0.5698 0.1185 -0.8132
vn -0.7235 0.0656 -0.6872
vn -0.7752 0.3710 -0.5113
vn -0.6955 0.5202 -0.4957
vn -0.3763 -0.0676 -0.9240
vn -0.5416 0.1750 -0.8222
vn -0.5519 0.5179 -0.6536
vn -0.4824 0.7608 -0.4342
vn -0.9945 0.0889 -0.0558
vn -0.9575 0.0807 0.2770
vn -0.9166 0.3947 -0.0635
vn -0.8063 0.4329 0.4031
vn -0.7749 0.1192 0.6208
vn -0.6222 0.1275 0.7724
vn -0.7450 0.6636 -0.0675
vn -0.6105 0.6947 0.3803
vn -0.6200 0.6850 0.3826
vn -0.7056 0.5842 0.4010
vn -0.5438 0.4313 0.7199
vn -0.3880 0.0510 0.9202
vn -0.5360 0.8426 -0.0530
vn -0.5135 0.7814 0.3546
vn -0.5444 0.5053 0.6696
vn -0.4623 0.5082 0.7267
vn -0.4156 0.9038 -0.1026
vn 0.0867 -0.8587 -0.5051
vn 0.0556 -0.5148 -0.8555
vn 0.0117 -0.6815 -0.7317
vn 0.3263 -0.7539 -0.5702
vn -0.0223 -0.1564 -0.9874
vn 0.2774 -0.3099 -0.9094
vn 0.5455 -0.6105 -0.5742
vn 0.5566 -0.7534 -0.3501
vn 0.5083 -0.2892 -0.8112
vn 0.6665 -0.4158 -0.6188
vn 0.7469 -0.3317 -0.5763
vn 0.8712 -0.4791 -0.1072
vn 0.1851 -0.9795 -0.0801
vn 0.1055 -0.8996 0.4238
vn -0.0517 -0.8471 0.5290
vn -0.0384 -0.4114 0.9107
vn 0.1249 -0.3546 0.9266
vn -0.0293 -0.3611 0.9321
vn 0.1177 -0.3551 0.9274
vn 0.3839 -0.9223 -0.0453
vn 0.3846 -0.8729 0.3001
vn 0.7307 -0.6814 -0.0413
vn 0.6935 -0.6336 0.3430
vn 0.5354 -0.7320 0.4213
vn 0.4555 -0.4618 0.7611
vn 0.8049 -0.3708 0.4633
vn 0.7753 -0.0290 0.6309
vn 0.7822 -0.0713 0.6189
vn 0.7929 -0.2861 0.5381
vn 0.2837 -0.3387 0.8971
vn 0.8408 -0.5346 -0.0848
vn 0.9704 -0.2348 0.0561
vn 0.9388 -0.2968 0.1751
vn 0.9240 -0.0488 0.3794
vn 0.1041 0.0616 -0.9927
vn 0.1081 0.0772 -0.9911
vn 0.0900 0.0069 -0.9959
vn 0.1549 0.0457 -0.9869
vn 0.1186 0.1191 -0.9858
vn 0.1020 0.6254 -0.7736
vn 0.1503 0.9063 -0.3950
vn 0.1450 0.9051 -0.3998
vn 0.1014 0.8932 -0.4382
vn 0.2307 0.9193 -0.3188
vn 0.5901 0.0888 -0.8024
vn 0.5283 0.3965 -0.7508
vn 0.6729 0.5589 -0.4846
vn 0.5001 0.8448 -0.1901
vn 0.5041 0.8437 -0.1843
vn 0.4487 0.8551 -0.2599
vn 0.3444 0.0958 -0.9339
vn 0.9854 0.0042 -0.1703
vn 0.6193 0.4958 -0.6089
vn 0.6274 0.7051 -0.3306
vn 0.0091 0.1568 0.9876
vn 0.0715 0.8809 0.4679
vn 0.4196 0.4832 0.7684
vn 0.2502 0.3643 0.8971
vn 0.2961 0.3976 0.8684
vn 0.0921 0.7746 0.6257
vn 0.1016 0.2518 0.9624
vn 0.3093 0.9193 -0.2435
vn 0.3101 0.8947 -0.3214
vn 0.0879 0.9042 0.4180
vn 0.7187 0.1805 0.6714
vn 0.5085 0.3611 0.7817
vn 0.3999 0.2701 0.8758
vn 0.5429 0.8302 -0.1264
vn 0.7485 0.5396 0.3855
vn 0.5329 0.7615 0.3690
vn 0.5426 0.5334 0.6489
vn 0.9954 -0.0931 0.0215
vn 0.9162 -0.1168 0.3833
vn 0.7585 0.3702 0.5363
vn 0.8185 0.1493 0.5547
vn 0.9204 0.3905 -0.0200
vn 0.3848 0.9194 -0.0811
vn 0.6226 0.6284 0.4663
vt 0.912514 0.147794
vt 0.906814 0.149382
vt 0.907525 0.149278
vt 0.912408 0.148481
vt 0.904840 0.144304
vt 0.390261 0.212139
vt 0.904473 0.143148
vt 0.904969 0.143596
vt 0.906654 0.148474
vt 0.460849 0.962663
vt 0.904610 0.142565
vt 0.908033 0.147025
vt 0.907170 0.147159
vt 0.906579 0.146856
vt 0.907556 0.146393
vt 0.906271 0.147493
vt 0.910995 0.147573
vt 0.910925 0.148694
vt 0.910181 0.147791
vt 0.910209 0.148478
vt 0.910786 0.149284
vt 0.906545 0.144128
vt 0.909439 0.148897
vt 0.907359 0.144043
vt 0.909254 0.147484
vt 0.909352 0.142221
vt 0.909633 0.141344
vt 0.907705 0.143603
vt 0.910284 0.140365
vt 0.910155 0.141368
vt 0.910136 0.142319
vt 0.912455 0.146653
vt 0.905966 0.149409
vt 0.905443 0.148289
vt 0.905976 0.147487
vt 0.912392 0.145919
vt 0.900183 0.148431
vt 0.458545 0.224411
vt 0.473006 0.794854
vt 0.467783 0.229661
vt 0.470113 0.791693
vt 0.471703 0.791807
vt 0.910969 0.146335
vt 0.910168 0.146652
vt 0.910971 0.145709
vt 0.909338 0.146207
vt 0.909253 0.143311
vt 0.899780 0.147018
vt 0.899791 0.146045
vt 0.461082 0.795243
vt 0.909763 0.144119
vt 0.454108 0.969074
vt 0.460767 0.793985
vt 0.460607 0.794874
vt 0.461584 0.972097
vt 0.462006 0.972512
vt 0.905923 0.141356
vt 0.905143 0.141307
vt 0.908195 0.145775
vt 0.907575 0.146219
vt 0.905515 0.140700
vt 0.906862 0.146137
vt 0.906632 0.145280
vt 0.899888 0.142271
vt 0.900413 0.141098
vt 0.906419 0.140593
vt 0.901513 0.141103
vt 0.462099 0.795964
vt 0.461622 0.796069
vt 0.452932 0.911661
vt 0.900772 0.142891
vt 0.907125 0.141727
vt 0.908148 0.141956
vt 0.342927 0.220956
vt 0.911557 0.141413
vt 0.463340 0.792294
vt 0.907369 0.141052
vt 0.908250 0.141496
vt 0.900181 0.143604
vt 0.915351 0.143851
vt 0.462980 0.793374
vt 0.901029 0.144079
vt 0.914782 0.142367
vt 0.462565 0.792197
vt 0.900724 0.143376
vt 0.901685 0.143884
vt 0.902275 0.144326
vt 0.905485 0.146141
vt 0.468781 0.793406
vt 0.470184 0.792935
vt 0.902622 0.147902
vt 0.901989 0.147363
vt 0.902756 0.140994
vt 0.469853 0.794148
vt 0.903942 0.142182
vt 0.470584 0.795265
vt 0.460044 0.910275
vt 0.461473 0.910629
vt 0.462221 0.910206
vt 0.911328 0.143630
vt 0.466855 0.798305
vt 0.461978 0.971239
vt 0.459949 0.794989
vt 0.911942 0.143990
vt 0.461997 0.971723
vt 0.915120 0.141111
vt 0.912244 0.143154
vt 0.903855 0.146458
vt 0.903045 0.145368
vt 0.903017 0.143872
vt 0.464244 0.900785
s 1
usemtl Planet
f 4/1/1 3/2/1 1/3/1 2/4/1
f 8/5/2 7/6/3 5/7/4 6/8/4
f 8/5/2 2/4/5 1/3/5 7/6/3
f 3/2/6 10/9/6 7/6/6 1/3/6
f 12/10/7 6/8/7 5/7/7 11/11/7
f 7/6/8 14/12/9 11/11/10 5/7/10
f 16/13/11 15/14/11 13/15/11 14/12/11
f 16/13/12 10/9/13 9/16/14 15/14/12
f 10/9/15 16/13/15 14/12/9 7/6/8
f 19/17/16 4/1/16 2/4/16 17/18/16
f 20/19/17 19/17/17 17/18/17 18/20/17
f 23/21/18 8/5/18 6/8/18 21/22/18
f 23/21/19 17/18/19 2/4/19 8/5/19
f 24/23/20 23/21/20 21/22/20 22/24/20
f 24/23/21 18/20/21 17/18/21 23/21/21
f 26/25/22 20/19/22 18/20/22 24/23/22
f 27/26/23 26/25/23 24/23/23 25/27/23
f 28/10/24 21/22/24 6/8/24 12/10/24
f 29/28/25 22/24/25 21/22/25 28/10/25
f 30/29/26 24/23/26 22/24/26 29/28/26
f 31/30/27 25/27/27 24/23/27 30/29/27
f 32/31/28 27/26/28 25/27/28 31/30/28
f 34/32/29 33/33/29 3/2/29 4/1/29
f 36/34/30 35/35/30 9/16/14 10/9/13
f 33/33/31 36/34/31 10/9/31 3/2/31
f 34/32/32 37/36/32 36/34/32 33/33/32
f 39/37/33 38/38/33 36/34/33 37/36/33
f 35/35/34 40/39/34 15/14/34 9/16/34
f 36/34/35 41/40/35 40/39/35 35/35/35
f 38/38/36 42/41/36 41/40/36 36/34/36
f 39/37/37 43/42/37 42/41/37 38/38/37
f 45/43/38 34/32/38 4/1/38 19/17/38
f 46/44/39 45/43/39 19/17/39 20/19/39
f 45/43/40 47/45/40 37/36/40 34/32/40
f 46/44/41 48/46/41 47/45/41 45/43/41
f 48/46/42 46/44/42 20/19/42 26/25/42
f 49/47/43 48/46/43 26/25/43 27/26/43
f 50/48/44 39/37/44 37/36/44 47/45/44
f 51/49/45 50/48/46 47/45/47 48/46/47
f 49/47/48 53/50/48 52/51/48 48/46/48
f 53/50/49 49/47/49 27/26/49 32/31/49
f 50/48/50 54/52/50 43/42/50 39/37/50
f 51/49/45 55/53/51 54/52/51 50/48/46
f 55/53/52 51/49/52 48/46/52 52/51/52
f 56/54/53 55/53/53 52/51/53 53/50/53
f 57/55/54 44/56/54 43/42/54 54/52/54
f 59/57/55 12/10/55 11/11/55 58/58/55
f 61/59/56 14/12/56 13/15/56 60/60/56
f 14/12/57 61/59/57 58/58/57 11/11/57
f 61/59/58 62/61/58 59/57/58 58/58/58
f 15/14/59 63/62/59 60/60/59 13/15/59
f 63/62/60 64/63/60 61/59/60 60/60/60
f 67/64/61 62/61/61 61/59/61 66/65/61
f 62/61/62 67/64/62 65/66/62 59/57/62
f 64/63/63 68/67/63 66/65/63 61/59/63
f 68/67/64 69/68/64 67/64/64 66/65/64
f 72/69/65 69/68/65 68/67/65 71/70/65
f 69/68/66 72/69/66 70/71/66 67/64/66
f 73/72/67 28/10/67 12/10/67 59/57/67
f 74/73/68 29/28/68 28/10/68 73/72/68
f 75/74/69 30/29/69 29/28/69 74/73/69
f 76/75/70 31/30/70 30/29/70 75/74/70
f 77/76/71 32/31/72 31/30/72 76/75/73
f 78/77/74 73/72/74 59/57/74 65/66/74
f 79/78/75 74/73/75 73/72/75 78/77/75
f 67/64/76 80/79/76 78/77/76 65/66/76
f 80/79/77 81/80/77 79/78/77 78/77/77
f 81/80/78 75/74/78 74/73/78 79/78/78
f 82/81/79 76/75/79 75/74/79 81/80/79
f 83/82/80 84/83/80 81/80/80 80/79/80
f 84/83/81 85/84/82 82/81/83 81/80/83
f 85/84/84 77/76/71 76/75/73 82/81/84
f 86/85/85 80/79/85 67/64/85 70/71/85
f 72/69/86 87/86/86 86/85/86 70/71/86
f 87/86/87 83/82/87 80/79/87 86/85/87
f 88/87/88 84/83/88 83/82/88 87/86/88
f 40/39/89 89/88/90 63/62/91 15/14/91
f 89/88/92 90/89/92 64/63/92 63/62/92
f 41/40/93 90/89/93 89/88/90 40/39/89
f 42/41/94 91/90/94 90/89/94 41/40/94
f 43/42/95 92/91/96 91/90/97 42/41/97
f 44/56/98 93/92/98 92/91/96 43/42/95
f 90/89/99 94/93/99 68/67/99 64/63/99
f 91/90/100 96/94/100 94/93/100 90/89/100
f 96/94/101 97/95/101 95/96/101 94/93/101
f 92/91/102 97/95/103 96/94/104 91/90/104
f 94/93/105 98/97/105 71/70/105 68/67/105
f 98/97/106 99/98/106 72/69/106 71/70/106
f 95/96/107 99/98/107 98/97/107 94/93/107
f 97/95/108 100/99/108 99/98/108 95/96/108
f 102/100/109 53/50/109 32/31/109 77/76/109
f 55/53/110 104/101/110 103/102/110 54/52/110
f 104/101/111 105/103/112 102/100/113 101/104/111
f 56/54/114 105/103/114 104/101/114 55/53/114
f 105/103/112 56/54/115 53/50/115 102/100/113
f 93/92/116 106/105/116 103/102/116 92/91/116
f 57/55/117 106/105/117 93/92/117 44/56/117
f 106/105/118 57/55/118 54/52/118 103/102/118
f 108/106/119 109/107/119 85/84/82 84/83/81
f 102/100/120 109/107/120 108/106/120 101/104/120
f 109/107/121 102/100/121 77/76/121 85/84/121
f 103/102/122 110/108/122 97/95/103 92/91/102
f 110/108/123 111/109/123 108/106/123 107/110/123
f 104/101/124 111/109/124 110/108/124 103/102/124
f 111/109/125 104/101/125 101/104/125 108/106/125
f 99/98/126 112/111/126 87/86/126 72/69/126
f 112/111/127 113/87/127 88/87/127 87/86/127
f 108/106/128 113/87/128 112/111/128 107/110/128
f 113/87/129 108/106/129 84/83/129 88/87/129
f 100/99/130 114/99/130 112/111/130 99/98/130
f 110/108/131 114/99/131 100/99/131 97/95/131
f 114/99/132 110/108/132 107/110/132 112/111/132
