# Blender 4.1.1
# www.blender.org
mtllib untitled.mtl
o Cube
v -0.480367 -3.788862 0.480367
v 0.480367 -3.788862 0.480367
v -0.480367 -3.788862 -0.480367
v 0.480367 -3.788862 -0.480367
v 1.000000 1.000000 -1.000000
v -1.000000 1.000000 -1.000000
v 1.000000 1.000000 1.000000
v -1.000000 1.000000 1.000000
v -1.000000 -0.000000 -1.000000
v 1.000000 0.000000 1.000000
v -1.000000 -0.000000 1.000000
v 1.000000 0.000000 -1.000000
v 1.000000 -0.480367 -1.000000
v 0.480367 -1.000000 -0.480367
v -0.480367 -1.000000 -0.480367
v -1.000000 -0.480367 -1.000000
v 0.480367 -1.000000 0.480367
v 1.000000 -0.480367 1.000000
v -0.480367 -1.000000 0.480367
v -1.000000 -0.480367 1.000000
vn 1.0000 -0.0000 -0.0000
vn -0.0000 -0.0000 1.0000
vn -0.0000 1.0000 -0.0000
vn -1.0000 -0.0000 -0.0000
vn -0.0000 -0.0000 -1.0000
vn -0.0000 -1.0000 -0.0000
vn -0.0000 -0.7071 -0.7071
vn -0.0000 -0.7071 0.7071
vn 0.7071 -0.7071 -0.0000
vn -0.7071 -0.7071 -0.0000
vt 0.750000 0.500000
vt 0.875000 0.500000
vt 0.875000 0.750000
vt 0.750000 0.750000
vt 0.375000 0.875000
vt 0.625000 0.875000
vt 0.625000 1.000000
vt 0.375000 1.000000
vt 0.375000 0.000000
vt 0.625000 0.000000
vt 0.625000 0.250000
vt 0.375000 0.250000
vt 0.375000 0.814954
vt 0.625000 0.814954
vt 0.689954 0.500000
vt 0.689954 0.750000
vt 0.439954 0.685046
vt 0.439954 0.564954
vt 0.625000 0.375000
vt 0.375000 0.375000
vt 0.125000 0.500000
vt 0.250000 0.500000
vt 0.250000 0.750000
vt 0.125000 0.750000
vt 0.560046 0.564954
vt 0.560046 0.685046
vt 0.310046 0.500000
vt 0.310046 0.750000
vt 0.375000 0.435046
vt 0.625000 0.435046
s 0
usemtl Material
f 12/1/1 5/2/1 7/3/1 10/4/1
f 11/5/2 10/6/2 7/7/2 8/8/2
f 8/9/3 7/10/3 5/11/3 6/12/3
f 20/13/2 18/14/2 10/6/2 11/5/2
f 13/15/1 12/1/1 10/4/1 18/16/1
f 19/17/4 15/18/4 3/18/4 1/17/4
f 6/12/5 5/11/5 12/19/5 9/20/5
f 6/21/4 9/22/4 11/23/4 8/24/4
f 3/18/6 4/25/6 2/26/6 1/17/6
f 9/22/4 16/27/4 20/28/4 11/23/4
f 14/25/7 15/18/7 16/29/7 13/30/7
f 18/14/8 20/13/8 19/17/8 17/26/8
f 13/15/9 18/16/9 17/26/9 14/25/9
f 20/28/10 16/27/10 15/18/10 19/17/10
f 9/20/5 12/19/5 13/30/5 16/29/5
f 14/25/1 17/26/1 2/26/1 4/25/1
f 17/26/2 19/17/2 1/17/2 2/26/2
f 15/18/5 14/25/5 4/25/5 3/18/5
